<svg width="65" height="65" viewBox="0 0 65 65" fill="none" xmlns="http://www.w3.org/2000/svg">
<rect width="65" height="65" fill="#1D2482"/>
<path d="M51.2364 29.4102C49.6498 29.4102 48.2823 29.0702 47.1339 28.3902C45.9855 27.6951 45.1015 26.7356 44.4819 25.5116C43.8624 24.2725 43.5526 22.8521 43.5526 21.2504C43.5526 19.6185 43.8624 18.1905 44.4819 16.9665C45.1015 15.7275 45.9855 14.7604 47.1339 14.0653C48.2823 13.3551 49.6498 13 51.2364 13C53.2008 13 54.8025 13.4911 56.0416 14.4733C57.2958 15.4555 58.074 16.8381 58.3762 18.6212H54.659C54.4776 17.8203 54.0923 17.2008 53.503 16.7626C52.9137 16.3092 52.1506 16.0826 51.2137 16.0826C50.3222 16.0826 49.5591 16.2941 48.9245 16.7172C48.3049 17.1403 47.829 17.7372 47.4965 18.5078C47.1792 19.2634 47.0205 20.1776 47.0205 21.2504C47.0205 22.293 47.1792 23.1997 47.4965 23.9703C47.829 24.7259 48.3049 25.3152 48.9245 25.7383C49.5591 26.1463 50.3222 26.3503 51.2137 26.3503C52.1506 26.3503 52.9061 26.1538 53.4803 25.7609C54.0697 25.353 54.4625 24.7712 54.659 24.0157H58.3762C58.074 25.6929 57.2958 27.0151 56.0416 27.9822C54.8025 28.9342 53.2008 29.4102 51.2364 29.4102Z" fill="white"/>
<path d="M34.5391 31.7221L28.646 22.429H32.5445L38.619 31.7221H34.5391ZM30.9353 29.4102C29.3789 29.4102 28.0113 29.0626 26.8327 28.3675C25.6541 27.6724 24.7248 26.7129 24.0448 25.4889C23.3799 24.2499 23.0475 22.8219 23.0475 21.2051C23.0475 19.5882 23.3799 18.1678 24.0448 16.9439C24.7248 15.7048 25.6541 14.7377 26.8327 14.0426C28.0113 13.3475 29.3789 13 30.9353 13C32.4917 13 33.8667 13.3475 35.0605 14.0426C36.2542 14.7377 37.176 15.7048 37.8257 16.9439C38.4906 18.1678 38.823 19.5882 38.823 21.2051C38.823 22.8219 38.4906 24.2499 37.8257 25.4889C37.176 26.7129 36.2542 27.6724 35.0605 28.3675C33.8667 29.0626 32.4917 29.4102 30.9353 29.4102ZM30.9353 26.3503C31.857 26.3503 32.6428 26.1387 33.2925 25.7156C33.9574 25.2925 34.4711 24.7032 34.8338 23.9477C35.1965 23.177 35.3778 22.2628 35.3778 21.2051C35.3778 20.1473 35.1965 19.2407 34.8338 18.4852C34.4711 17.7145 33.9574 17.1252 33.2925 16.7172C32.6428 16.2941 31.857 16.0826 30.9353 16.0826C30.0437 16.0826 29.2655 16.2941 28.6007 16.7172C27.9358 17.1252 27.422 17.7145 27.0594 18.4852C26.6967 19.2407 26.5154 20.1473 26.5154 21.2051C26.5154 22.2628 26.6967 23.177 27.0594 23.9477C27.422 24.7032 27.9358 25.2925 28.6007 25.7156C29.2655 26.1387 30.0437 26.3503 30.9353 26.3503Z" fill="white"/>
<path d="M7.89153 29.1382V13.272H18.4312V16.0146H11.2914V19.8678H16.9126V22.5197H11.2914V29.1382H7.89153Z" fill="white"/>
<path d="M45.5145 48.4271L45.7803 47.8621C46.3343 47.8621 46.9436 47.9452 47.6083 48.1114C48.273 48.2665 48.9433 48.4271 49.6191 48.5933C50.2949 48.7484 50.9208 48.826 51.4969 48.826C52.2613 48.826 52.8707 48.7041 53.3249 48.4604C53.7791 48.2056 54.117 47.7403 54.3386 47.0645C54.4272 46.8761 54.5103 46.7487 54.5878 46.6823C54.6654 46.6047 54.754 46.5659 54.8537 46.5659C54.9756 46.5659 55.0642 46.6213 55.1196 46.7321C55.1861 46.8429 55.2193 47.0257 55.2193 47.2805C55.175 48.2222 54.9368 49.0475 54.5048 49.7566C54.0838 50.4656 53.5298 51.014 52.843 51.4018C52.1561 51.7895 51.3917 51.9834 50.5497 51.9834C49.9293 51.9834 49.3754 51.8837 48.8879 51.6843C48.4115 51.4959 47.9794 51.2577 47.5917 50.9697C47.215 50.6816 46.8827 50.3936 46.5946 50.1056C46.3066 49.8175 46.0352 49.5738 45.7803 49.3744C45.5366 49.175 45.304 49.0752 45.0824 49.0752C44.8941 49.0642 44.7223 49.1583 44.5672 49.3577C44.4232 49.5461 44.2736 49.7898 44.1185 50.0889C43.9634 50.377 43.7917 50.6706 43.6034 50.9697C43.4261 51.2577 43.2101 51.4959 42.9553 51.6843C42.7116 51.8837 42.418 51.9834 42.0745 51.9834C41.7089 51.9834 41.4154 51.8781 41.1938 51.6676C40.9833 51.4682 40.8781 51.1746 40.8781 50.7869C40.8781 50.4767 40.9556 50.1665 41.1107 49.8563C41.2658 49.5461 41.5151 49.247 41.8585 48.9589C42.213 48.6709 42.6617 48.4105 43.2046 48.1779C43.4705 48.0782 43.7696 47.9231 44.1019 47.7126C44.4343 47.491 44.8054 47.214 45.2153 46.8817C45.6252 46.5382 46.0905 46.1283 46.6112 45.6519C47.1319 45.1645 47.7246 44.5939 48.3894 43.9403C49.2535 43.1316 50.0013 42.4281 50.6328 41.8298C51.2643 41.2316 51.7739 40.7441 52.1616 40.3674C52.5605 39.9797 52.8263 39.7027 52.9593 39.5365L52.8928 40.1514C52.5161 40.1514 52.0287 40.0849 51.4304 39.952C50.8322 39.8191 50.1952 39.664 49.5194 39.4867C48.8436 39.3094 48.1955 39.1543 47.5751 39.0214C46.9547 38.8885 46.4284 38.822 45.9964 38.822C45.4535 38.822 45.0436 38.9106 44.7666 39.0879C44.5008 39.254 44.3678 39.4812 44.3678 39.7692C44.3678 39.9132 44.4121 40.0517 44.5008 40.1846C44.6005 40.3065 44.7666 40.4395 44.9993 40.5835C45.2098 40.7164 45.3538 40.8494 45.4314 40.9823C45.52 41.1153 45.5643 41.2704 45.5643 41.4476C45.5643 41.7246 45.4701 41.9462 45.2818 42.1123C45.1045 42.2785 44.8608 42.3616 44.5506 42.3616C44.1075 42.3616 43.7363 42.201 43.4372 41.8797C43.1492 41.5473 43.0051 41.0654 43.0051 40.4339C43.0051 39.7138 43.1824 39.0325 43.5369 38.3899C43.9025 37.7363 44.4121 37.2045 45.0658 36.7946C45.7305 36.3847 46.5115 36.1797 47.4089 36.1797C48.0736 36.1797 48.6608 36.2684 49.1704 36.4456C49.68 36.6229 50.1287 36.8444 50.5165 37.1103C50.9042 37.3651 51.2532 37.6255 51.5634 37.8914C51.8847 38.1462 52.1838 38.3622 52.4608 38.5395C52.7377 38.7167 53.0147 38.8054 53.2916 38.8054C53.4689 38.8054 53.624 38.7167 53.7569 38.5395C53.901 38.3622 54.0395 38.1462 54.1724 37.8914C54.3164 37.6255 54.466 37.3651 54.6211 37.1103C54.7762 36.8555 54.9645 36.6395 55.1861 36.4622C55.4077 36.285 55.6791 36.1963 56.0004 36.1963C56.3881 36.1963 56.6762 36.3127 56.8645 36.5453C57.0639 36.778 57.1636 37.0826 57.1636 37.4593C57.1636 38.0132 57.0141 38.473 56.7149 38.8386C56.4269 39.2042 55.9838 39.4978 55.3855 39.7193C55.175 39.7969 54.9257 39.9298 54.6377 40.1182C54.3607 40.3065 54.0228 40.5669 53.624 40.8992C53.2252 41.2205 52.7488 41.6359 52.1949 42.1456C51.652 42.6552 51.0095 43.2756 50.2672 44.0068C49.4031 44.8155 48.6663 45.5024 48.057 46.0674C47.4477 46.6213 46.9381 47.0866 46.5281 47.4633C46.1182 47.84 45.7803 48.1613 45.5145 48.4271Z" fill="white"/>
<path d="M32.0254 47.4301C31.7152 48.3164 31.5989 48.9368 31.6765 49.2913C31.7651 49.6347 31.959 49.8064 32.2581 49.8064C32.4464 49.8064 32.6514 49.7455 32.8729 49.6236C33.0945 49.5018 33.3604 49.2802 33.6706 48.9589C33.8368 48.8038 33.9753 48.7041 34.0861 48.6598C34.1968 48.6155 34.3021 48.6155 34.4018 48.6598C34.5237 48.7263 34.5791 48.8371 34.568 48.9922C34.568 49.1473 34.507 49.3411 34.3852 49.5738C33.9753 50.305 33.4047 50.8921 32.6735 51.3353C31.9423 51.7673 31.1281 51.9834 30.2307 51.9834C29.566 51.9834 29.0564 51.8338 28.7018 51.5347C28.3584 51.2245 28.1812 50.7814 28.1701 50.2053C28.159 49.6292 28.303 48.9201 28.6021 48.0782L31.2776 40.7995C31.61 39.9021 31.7318 39.2817 31.6432 38.9383C31.5657 38.5838 31.3718 38.4065 31.0616 38.4065C30.8843 38.4065 30.6849 38.4675 30.4633 38.5893C30.2418 38.7112 29.9704 38.9383 29.6491 39.2707C29.4829 39.4147 29.3444 39.5089 29.2336 39.5532C29.1228 39.5975 29.0176 39.5975 28.9179 39.5532C28.796 39.4867 28.7351 39.3815 28.7351 39.2374C28.7462 39.0823 28.8071 38.8885 28.9179 38.6558C29.3389 37.9135 29.915 37.3208 30.6461 36.8777C31.3884 36.4235 32.1916 36.1963 33.0557 36.1963C33.6761 36.1963 34.1581 36.3459 34.5015 36.645C34.856 36.9442 35.0499 37.3928 35.0831 37.9911C35.1164 38.5893 34.9723 39.3316 34.6511 40.2179L32.0254 47.4301Z" fill="white"/>
<path d="M23.5064 39.0546C23.5064 40.4727 23.3181 41.8298 22.9414 43.126C22.5647 44.4111 22.033 45.5966 21.3461 46.6823C20.6703 47.7569 19.8782 48.693 18.9697 49.4907C18.0724 50.2884 17.0974 50.9088 16.045 51.3519C14.9925 51.784 13.9068 52 12.7879 52C11.7686 52 10.9654 51.7397 10.3783 51.219C9.80218 50.6983 9.52521 49.9228 9.54737 48.8924C9.56953 48.0172 9.75786 47.1974 10.1124 46.433C10.4669 45.6575 10.91 44.9318 11.4418 44.256C11.9736 43.5802 12.522 42.9432 13.087 42.345C13.6631 41.7467 14.1838 41.1762 14.6491 40.6333C15.1255 40.0905 15.4689 39.5642 15.6794 39.0546L15.6628 39.7193C15.1199 39.7193 14.5826 39.6584 14.0508 39.5366C13.5301 39.4147 13.0205 39.2762 12.522 39.1211C12.0234 38.9549 11.5415 38.8109 11.0762 38.689C10.622 38.5561 10.1955 38.4841 9.79664 38.473C9.34241 38.473 8.9879 38.5783 8.73309 38.7887C8.47828 38.9992 8.34534 39.2651 8.33426 39.5864C8.3121 39.9188 8.5226 40.2068 8.96574 40.4505C9.24271 40.5946 9.44212 40.7441 9.56399 40.8992C9.68585 41.0432 9.74124 41.2316 9.73017 41.4642C9.71909 41.7966 9.60276 42.0569 9.38119 42.2453C9.1707 42.4225 8.91589 42.5112 8.61676 42.5112C8.14038 42.5112 7.74155 42.3117 7.42027 41.9129C7.11007 41.503 6.97159 40.9325 7.00482 40.2013C7.03806 39.4368 7.2264 38.7555 7.56983 38.1573C7.92435 37.5479 8.40627 37.0716 9.01559 36.7281C9.62492 36.3736 10.3284 36.1963 11.1261 36.1963C11.5581 36.1963 12.0124 36.2517 12.4887 36.3625C12.9762 36.4733 13.4415 36.5841 13.8846 36.6949C14.3278 36.8057 14.71 36.8611 15.0313 36.8611C15.3636 36.8611 15.6129 36.8057 15.7791 36.6949C15.9564 36.573 16.1059 36.4567 16.2278 36.3459C16.3496 36.2351 16.5103 36.1853 16.7097 36.1963C16.898 36.2074 17.0254 36.2905 17.0919 36.4456C17.1695 36.5896 17.1861 36.8168 17.1418 37.127C17.031 37.692 16.8426 38.3124 16.5768 38.9882C16.3109 39.6529 16.0117 40.3619 15.6794 41.1153C15.347 41.8686 15.0202 42.6386 14.6989 43.4251C14.3887 44.2007 14.1284 44.9817 13.9179 45.7683C13.7185 46.5549 13.6188 47.3193 13.6188 48.0616C13.6188 48.8149 13.7572 49.3688 14.0342 49.7233C14.3223 50.0668 14.71 50.2385 15.1975 50.2385C15.8068 50.2385 16.4494 50.0003 17.1251 49.5239C17.8009 49.0365 18.438 48.3828 19.0362 47.563C19.6455 46.7432 20.1385 45.8347 20.5152 44.8377C20.8919 43.8295 21.0802 42.8158 21.0802 41.7966C21.0913 41.2537 21.047 40.8328 20.9473 40.5336C20.8476 40.2234 20.6758 39.9298 20.4321 39.6529C20.1773 39.3759 19.989 39.1211 19.8671 38.8885C19.7452 38.6447 19.6843 38.3678 19.6843 38.0576C19.6954 37.703 19.7785 37.3873 19.9336 37.1103C20.0998 36.8334 20.3213 36.6118 20.5983 36.4456C20.8753 36.2794 21.1855 36.1963 21.5289 36.1963C22.1382 36.1963 22.6201 36.429 22.9747 36.8943C23.3292 37.3596 23.5064 38.0797 23.5064 39.0546Z" fill="white"/>
</svg>
