<svg width="140" height="36" viewBox="0 0 140 36" fill="none" xmlns="http://www.w3.org/2000/svg">
<rect width="140" height="36" fill="white"/>
<path d="M120.257 23.702L120.529 23.124C121.095 23.124 121.719 23.209 122.399 23.379C123.079 23.5377 123.764 23.702 124.456 23.872C125.147 24.0307 125.787 24.11 126.377 24.11C127.159 24.11 127.782 23.9853 128.247 23.736C128.711 23.4753 129.057 22.9993 129.284 22.308C129.374 22.1153 129.459 21.985 129.539 21.917C129.618 21.8377 129.709 21.798 129.811 21.798C129.935 21.798 130.026 21.8547 130.083 21.968C130.151 22.0813 130.185 22.2683 130.185 22.529C130.139 23.4923 129.896 24.3367 129.454 25.062C129.023 25.7873 128.456 26.3483 127.754 26.745C127.051 27.1417 126.269 27.34 125.408 27.34C124.773 27.34 124.206 27.238 123.708 27.034C123.22 26.8413 122.778 26.5977 122.382 26.303C121.996 26.0083 121.656 25.7137 121.362 25.419C121.067 25.1243 120.789 24.875 120.529 24.671C120.279 24.467 120.041 24.365 119.815 24.365C119.622 24.3537 119.446 24.45 119.288 24.654C119.14 24.8467 118.987 25.096 118.829 25.402C118.67 25.6967 118.494 25.997 118.302 26.303C118.12 26.5977 117.899 26.8413 117.639 27.034C117.389 27.238 117.089 27.34 116.738 27.34C116.364 27.34 116.063 27.2323 115.837 27.017C115.621 26.813 115.514 26.5127 115.514 26.116C115.514 25.7987 115.593 25.4813 115.752 25.164C115.91 24.8467 116.165 24.5407 116.517 24.246C116.879 23.9513 117.338 23.685 117.894 23.447C118.166 23.345 118.472 23.1863 118.812 22.971C119.152 22.7443 119.531 22.461 119.951 22.121C120.37 21.7697 120.846 21.3503 121.379 20.863C121.911 20.3643 122.518 19.7807 123.198 19.112C124.082 18.2847 124.847 17.565 125.493 16.953C126.139 16.341 126.66 15.8423 127.057 15.457C127.465 15.0603 127.737 14.777 127.873 14.607L127.805 15.236C127.419 15.236 126.921 15.168 126.309 15.032C125.697 14.896 125.045 14.7373 124.354 14.556C123.662 14.3747 122.999 14.216 122.365 14.08C121.73 13.944 121.192 13.876 120.75 13.876C120.194 13.876 119.775 13.9667 119.492 14.148C119.22 14.318 119.084 14.5503 119.084 14.845C119.084 14.9923 119.129 15.134 119.22 15.27C119.322 15.3947 119.492 15.5307 119.73 15.678C119.945 15.814 120.092 15.95 120.172 16.086C120.262 16.222 120.308 16.3807 120.308 16.562C120.308 16.8453 120.211 17.072 120.019 17.242C119.837 17.412 119.588 17.497 119.271 17.497C118.817 17.497 118.438 17.3327 118.132 17.004C117.837 16.664 117.69 16.171 117.69 15.525C117.69 14.7883 117.871 14.0913 118.234 13.434C118.608 12.7653 119.129 12.2213 119.798 11.802C120.478 11.3827 121.277 11.173 122.195 11.173C122.875 11.173 123.475 11.2637 123.997 11.445C124.518 11.6263 124.977 11.853 125.374 12.125C125.77 12.3857 126.127 12.652 126.445 12.924C126.773 13.1847 127.079 13.4057 127.363 13.587C127.646 13.7683 127.929 13.859 128.213 13.859C128.394 13.859 128.553 13.7683 128.689 13.587C128.836 13.4057 128.978 13.1847 129.114 12.924C129.261 12.652 129.414 12.3857 129.573 12.125C129.731 11.8643 129.924 11.6433 130.151 11.462C130.377 11.2807 130.655 11.19 130.984 11.19C131.38 11.19 131.675 11.309 131.868 11.547C132.072 11.785 132.174 12.0967 132.174 12.482C132.174 13.0487 132.021 13.519 131.715 13.893C131.42 14.267 130.967 14.5673 130.355 14.794C130.139 14.8733 129.884 15.0093 129.59 15.202C129.306 15.3947 128.961 15.661 128.553 16.001C128.145 16.3297 127.657 16.7547 127.091 17.276C126.535 17.7973 125.878 18.432 125.119 19.18C124.235 20.0073 123.481 20.71 122.858 21.288C122.234 21.8547 121.713 22.3307 121.294 22.716C120.874 23.1013 120.529 23.43 120.257 23.702Z" fill="#333DBE"/>
<path d="M112.518 22.682C112.2 23.5887 112.081 24.2233 112.161 24.586C112.251 24.9373 112.45 25.113 112.756 25.113C112.948 25.113 113.158 25.0507 113.385 24.926C113.611 24.8013 113.883 24.5747 114.201 24.246C114.371 24.0873 114.512 23.9853 114.626 23.94C114.739 23.8947 114.847 23.8947 114.949 23.94C115.073 24.008 115.13 24.1213 115.119 24.28C115.119 24.4387 115.056 24.637 114.932 24.875C114.512 25.623 113.929 26.2237 113.181 26.677C112.433 27.119 111.6 27.34 110.682 27.34C110.002 27.34 109.48 27.187 109.118 26.881C108.766 26.5637 108.585 26.1103 108.574 25.521C108.562 24.9317 108.71 24.2063 109.016 23.345L111.753 15.899C112.093 14.981 112.217 14.3463 112.127 13.995C112.047 13.6323 111.849 13.451 111.532 13.451C111.35 13.451 111.146 13.5133 110.92 13.638C110.693 13.7627 110.415 13.995 110.087 14.335C109.917 14.4823 109.775 14.5787 109.662 14.624C109.548 14.6693 109.441 14.6693 109.339 14.624C109.214 14.556 109.152 14.4483 109.152 14.301C109.163 14.1423 109.225 13.944 109.339 13.706C109.769 12.9467 110.359 12.3403 111.107 11.887C111.866 11.4223 112.688 11.19 113.572 11.19C114.206 11.19 114.699 11.343 115.051 11.649C115.413 11.955 115.612 12.414 115.646 13.026C115.68 13.638 115.532 14.3973 115.204 15.304L112.518 22.682ZM114.779 8.045C114.087 8.045 113.56 7.858 113.198 7.484C112.835 7.09867 112.682 6.63967 112.739 6.107C112.784 5.665 112.943 5.25133 113.215 4.866C113.487 4.48067 113.849 4.169 114.303 3.931C114.756 3.68167 115.266 3.557 115.833 3.557C116.569 3.557 117.102 3.74967 117.431 4.135C117.771 4.509 117.907 4.968 117.839 5.512C117.805 5.97667 117.652 6.40167 117.38 6.787C117.108 7.161 116.745 7.467 116.292 7.705C115.85 7.93167 115.345 8.045 114.779 8.045Z" fill="#333DBE"/>
<path d="M108.47 14.114C108.47 15.5647 108.277 16.953 107.892 18.279C107.506 19.5937 106.962 20.8063 106.26 21.917C105.568 23.0163 104.758 23.974 103.829 24.79C102.911 25.606 101.913 26.2407 100.837 26.694C99.76 27.136 98.6493 27.357 97.5046 27.357C96.462 27.357 95.6403 27.0907 95.0396 26.558C94.4503 26.0253 94.167 25.232 94.1896 24.178C94.2123 23.2827 94.405 22.444 94.7676 21.662C95.1303 20.8687 95.5836 20.1263 96.1276 19.435C96.6716 18.7437 97.2326 18.092 97.8106 17.48C98.4 16.868 98.9326 16.2843 99.4086 15.729C99.896 15.1737 100.247 14.6353 100.463 14.114L100.446 14.794C99.8903 14.794 99.3406 14.7317 98.7966 14.607C98.264 14.4823 97.7426 14.3407 97.2326 14.182C96.7226 14.012 96.2296 13.8647 95.7536 13.74C95.289 13.604 94.8526 13.5303 94.4446 13.519C93.98 13.519 93.6173 13.6267 93.3566 13.842C93.096 14.0573 92.96 14.3293 92.9486 14.658C92.926 14.998 93.1413 15.2927 93.5946 15.542C93.878 15.6893 94.082 15.8423 94.2066 16.001C94.3313 16.1483 94.388 16.341 94.3766 16.579C94.3653 16.919 94.2463 17.1853 94.0196 17.378C93.8043 17.5593 93.5436 17.65 93.2376 17.65C92.7503 17.65 92.3423 17.446 92.0136 17.038C91.6963 16.6187 91.5546 16.035 91.5886 15.287C91.6226 14.505 91.8153 13.808 92.1666 13.196C92.5293 12.5727 93.0223 12.0853 93.6456 11.734C94.269 11.3713 94.9886 11.19 95.8046 11.19C96.2466 11.19 96.7113 11.2467 97.1986 11.36C97.6973 11.4733 98.1733 11.5867 98.6266 11.7C99.08 11.8133 99.471 11.87 99.7996 11.87C100.14 11.87 100.395 11.8133 100.565 11.7C100.746 11.5753 100.899 11.4563 101.024 11.343C101.148 11.2297 101.313 11.1787 101.517 11.19C101.709 11.2013 101.84 11.2863 101.908 11.445C101.987 11.5923 102.004 11.8247 101.959 12.142C101.845 12.72 101.653 13.3547 101.381 14.046C101.109 14.726 100.803 15.4513 100.463 16.222C100.123 16.9927 99.7883 17.7803 99.4596 18.585C99.1423 19.3783 98.876 20.1773 98.6606 20.982C98.4566 21.7867 98.3546 22.5687 98.3546 23.328C98.3546 24.0987 98.4963 24.6653 98.7796 25.028C99.0743 25.3793 99.471 25.555 99.9696 25.555C100.593 25.555 101.25 25.3113 101.942 24.824C102.633 24.3253 103.285 23.6567 103.897 22.818C104.52 21.9793 105.024 21.05 105.41 20.03C105.795 18.9987 105.988 17.9617 105.988 16.919C105.999 16.3637 105.954 15.933 105.852 15.627C105.75 15.3097 105.574 15.0093 105.325 14.726C105.064 14.4427 104.871 14.182 104.747 13.944C104.622 13.6947 104.56 13.4113 104.56 13.094C104.571 12.7313 104.656 12.4083 104.815 12.125C104.985 11.8417 105.211 11.615 105.495 11.445C105.778 11.275 106.095 11.19 106.447 11.19C107.07 11.19 107.563 11.428 107.926 11.904C108.288 12.38 108.47 13.1167 108.47 14.114Z" fill="#333DBE"/>
<path d="M83.4139 27.288C81.7339 27.288 80.2859 26.928 79.0699 26.208C77.8699 25.472 76.9419 24.456 76.2859 23.16C75.6459 21.848 75.3259 20.336 75.3259 18.624C75.3259 16.912 75.6459 15.4 76.2859 14.088C76.9419 12.776 77.8699 11.752 79.0699 11.016C80.2859 10.28 81.7339 9.912 83.4139 9.912C85.4459 9.912 87.1099 10.416 88.4059 11.424C89.7019 12.432 90.5099 13.856 90.8299 15.696H87.3019C87.0939 14.8 86.6539 14.104 85.9819 13.608C85.3259 13.096 84.4619 12.84 83.3899 12.84C82.3979 12.84 81.5419 13.08 80.8219 13.56C80.1179 14.024 79.5739 14.688 79.1899 15.552C78.8059 16.4 78.6139 17.424 78.6139 18.624C78.6139 19.808 78.8059 20.832 79.1899 21.696C79.5739 22.56 80.1179 23.224 80.8219 23.688C81.5419 24.152 82.3979 24.384 83.3899 24.384C84.4619 24.384 85.3259 24.152 85.9819 23.688C86.6379 23.208 87.0699 22.544 87.2779 21.696H90.8299C90.5099 23.44 89.7019 24.808 88.4059 25.8C87.1099 26.792 85.4459 27.288 83.4139 27.288Z" fill="black"/>
<path d="M70.2096 29.64L64.0896 20.016H67.8096L74.0736 29.64H70.2096ZM66.2496 27.288C64.6176 27.288 63.1776 26.92 61.9296 26.184C60.6816 25.448 59.7056 24.432 59.0016 23.136C58.2976 21.824 57.9456 20.312 57.9456 18.6C57.9456 16.888 58.2976 15.384 59.0016 14.088C59.7056 12.776 60.6816 11.752 61.9296 11.016C63.1776 10.28 64.6176 9.912 66.2496 9.912C67.8976 9.912 69.3456 10.28 70.5936 11.016C71.8416 11.752 72.8096 12.776 73.4976 14.088C74.2016 15.384 74.5536 16.888 74.5536 18.6C74.5536 20.312 74.2016 21.824 73.4976 23.136C72.8096 24.432 71.8416 25.448 70.5936 26.184C69.3456 26.92 67.8976 27.288 66.2496 27.288ZM66.2496 24.384C67.2736 24.384 68.1536 24.152 68.8896 23.688C69.6416 23.208 70.2256 22.536 70.6416 21.672C71.0576 20.808 71.2656 19.784 71.2656 18.6C71.2656 17.4 71.0576 16.376 70.6416 15.528C70.2256 14.664 69.6416 14 68.8896 13.536C68.1536 13.072 67.2736 12.84 66.2496 12.84C65.2416 12.84 64.3616 13.072 63.6096 13.536C62.8576 14 62.2736 14.664 61.8576 15.528C61.4416 16.376 61.2336 17.4 61.2336 18.6C61.2336 19.784 61.4416 20.808 61.8576 21.672C62.2736 22.536 62.8576 23.208 63.6096 23.688C64.3616 24.152 65.2416 24.384 66.2496 24.384Z" fill="black"/>
<path d="M50.0918 27V12.816H45.1717V10.2H58.2038V12.816H53.3078V27H50.0918Z" fill="black"/>
<path d="M39.0834 27.288C37.8674 27.288 36.7794 27.08 35.8194 26.664C34.8754 26.248 34.1234 25.64 33.5634 24.84C33.0194 24.04 32.7394 23.072 32.7234 21.936H36.1554C36.1714 22.432 36.2994 22.88 36.5394 23.28C36.7794 23.68 37.1074 24 37.5234 24.24C37.9554 24.464 38.4674 24.576 39.0594 24.576C39.5714 24.576 40.0114 24.496 40.3794 24.336C40.7634 24.16 41.0594 23.92 41.2674 23.616C41.4754 23.312 41.5794 22.952 41.5794 22.536C41.5794 22.056 41.4594 21.656 41.2194 21.336C40.9954 21.016 40.6754 20.744 40.2594 20.52C39.8594 20.296 39.3874 20.096 38.8434 19.92C38.3154 19.728 37.7554 19.528 37.1634 19.32C35.8354 18.888 34.8194 18.312 34.1154 17.592C33.4274 16.872 33.0834 15.92 33.0834 14.736C33.0834 13.728 33.3234 12.864 33.8034 12.144C34.2994 11.424 34.9794 10.872 35.8434 10.488C36.7074 10.104 37.6914 9.912 38.7954 9.912C39.9314 9.912 40.9234 10.112 41.7714 10.512C42.6354 10.896 43.3154 11.456 43.8114 12.192C44.3234 12.928 44.5874 13.792 44.6034 14.784H41.1474C41.1314 14.416 41.0194 14.072 40.8114 13.752C40.6194 13.416 40.3474 13.152 39.9954 12.96C39.6434 12.752 39.2274 12.648 38.7474 12.648C38.3314 12.632 37.9474 12.696 37.5954 12.84C37.2594 12.984 36.9874 13.2 36.7794 13.488C36.5874 13.76 36.4914 14.104 36.4914 14.52C36.4914 14.92 36.5874 15.256 36.7794 15.528C36.9874 15.8 37.2674 16.04 37.6194 16.248C37.9714 16.44 38.3874 16.624 38.8674 16.8C39.3474 16.96 39.8674 17.128 40.4274 17.304C41.2594 17.592 42.0274 17.936 42.7314 18.336C43.4354 18.72 43.9954 19.224 44.4114 19.848C44.8274 20.472 45.0354 21.296 45.0354 22.32C45.0354 23.2 44.8034 24.016 44.3394 24.768C43.8754 25.52 43.2034 26.128 42.3234 26.592C41.4594 27.056 40.3794 27.288 39.0834 27.288Z" fill="black"/>
<path d="M16.5958 27L22.7398 10.2H26.4118L32.5318 27H29.0998L24.5638 13.896L20.0038 27H16.5958ZM19.3078 23.184L20.1718 20.664H28.7158L29.5558 23.184H19.3078Z" fill="black"/>
<path d="M7.656 27V10.2H18.6V12.816H10.896V17.304H17.064V19.848H10.896V27H7.656Z" fill="black"/>
</svg>
