<svg width="240" height="277" viewBox="0 0 240 277" fill="none" xmlns="http://www.w3.org/2000/svg">
<g clip-path="url(#clip0_7_21)">
<g clip-path="url(#clip1_7_21)">
<rect width="138.59" height="137.667" transform="matrix(0.865865 0.500278 0 1 0 70)" fill="#1D2482"/>
<path d="M85.4164 182.018C82.7832 180.496 80.5137 178.533 78.6077 176.129C76.7018 173.695 75.2347 171.008 74.2065 168.068C73.1783 165.099 72.6642 162.08 72.6642 159.009C72.6642 155.881 73.1783 153.441 74.2065 151.689C75.2347 149.909 76.7018 148.903 78.6077 148.671C80.5137 148.411 82.7832 149.042 85.4164 150.564C88.6766 152.447 91.3349 154.924 93.3913 157.995C95.4728 161.08 96.7643 164.477 97.2659 168.184L91.0967 164.62C90.7957 162.911 90.1562 161.354 89.1782 159.949C88.2001 158.515 86.9337 157.349 85.3788 156.45C83.8992 155.595 82.6328 155.269 81.5795 155.472C80.5513 155.688 79.7613 156.376 79.2096 157.534C78.683 158.678 78.4196 160.278 78.4196 162.335C78.4196 164.333 78.683 166.223 79.2096 168.005C79.7613 169.772 80.5513 171.358 81.5795 172.763C82.6328 174.153 83.8992 175.276 85.3788 176.131C86.9337 177.029 88.1876 177.377 89.1406 177.175C90.1186 176.958 90.7706 176.219 91.0967 174.96L97.2659 178.524C96.7643 181.449 95.4728 183.237 93.3913 183.888C91.3349 184.525 88.6766 183.901 85.4164 182.018Z" fill="white"/>
<path d="M57.705 170.438L47.9245 146.975L54.3947 150.713L64.4761 174.35L57.705 170.438ZM51.7239 162.551C49.1408 161.058 46.8712 159.081 44.9151 156.618C42.959 154.156 41.4167 151.426 40.2882 148.427C39.1848 145.415 38.6331 142.359 38.6331 139.26C38.6331 136.161 39.1848 133.757 40.2882 132.049C41.4167 130.326 42.959 129.363 44.9151 129.161C46.8712 128.959 49.1408 129.604 51.7239 131.097C54.3069 132.589 56.5891 134.574 58.5702 137.051C60.5514 139.528 62.0812 142.265 63.1595 145.263C64.263 148.247 64.8147 151.288 64.8147 154.387C64.8147 157.486 64.263 159.905 63.1595 161.642C62.0812 163.365 60.5514 164.32 58.5702 164.508C56.5891 164.696 54.3069 164.043 51.7239 162.551ZM51.7239 156.686C53.2536 157.57 54.5577 157.917 55.6361 157.73C56.7395 157.556 57.5922 156.919 58.1941 155.819C58.7959 154.689 59.0969 153.111 59.0969 151.084C59.0969 149.056 58.7959 147.145 58.1941 145.349C57.5922 143.524 56.7395 141.902 55.6361 140.482C54.5577 139.048 53.2536 137.889 51.7239 137.005C50.2443 136.15 48.9527 135.81 47.8493 135.983C46.7459 136.127 45.8932 136.764 45.2913 137.894C44.6894 138.994 44.3885 140.558 44.3885 142.585C44.3885 144.613 44.6894 146.539 45.2913 148.364C45.8932 150.16 46.7459 151.782 47.8493 153.231C48.9527 154.679 50.2443 155.831 51.7239 156.686Z" fill="white"/>
<path d="M13.4796 139.933V109.521L30.9717 119.628V124.885L19.1222 118.038V125.424L28.4513 130.814V135.897L19.1222 130.507V143.193L13.4796 139.933Z" fill="white"/>
<path d="M75.9201 212.981L76.3614 212.153C77.2807 212.684 78.2919 213.428 79.3951 214.384C80.4983 215.319 81.6107 216.269 82.7323 217.236C83.8539 218.181 84.8927 218.93 85.8488 219.482C87.1175 220.215 88.1287 220.566 88.8826 220.534C89.6364 220.482 90.1972 219.914 90.5649 218.831C90.712 218.555 90.8499 218.39 90.9786 218.337C91.1073 218.263 91.2544 218.274 91.4199 218.369C91.6222 218.486 91.7693 218.677 91.8612 218.943C91.9715 219.219 92.0267 219.601 92.0267 220.09C91.9531 221.852 91.5578 223.206 90.8407 224.15C90.1421 225.106 89.2227 225.626 88.0828 225.71C86.9428 225.795 85.6741 225.433 84.2768 224.626C83.2471 224.031 82.3278 223.309 81.5188 222.459C80.7282 221.641 80.0111 220.771 79.3676 219.847C78.7424 218.933 78.1908 218.063 77.7128 217.234C77.2347 216.406 76.7843 215.678 76.3614 215.052C75.9569 214.436 75.5707 214.022 75.203 213.809C74.8904 213.607 74.6055 213.623 74.348 213.857C74.109 214.08 73.8608 214.403 73.6034 214.828C73.346 215.231 73.061 215.629 72.7484 216.022C72.4542 216.404 72.0957 216.654 71.6728 216.77C71.2683 216.919 70.7811 216.829 70.2111 216.499C69.6043 216.149 69.1171 215.665 68.7494 215.049C68.4 214.465 68.2253 213.802 68.2253 213.059C68.2253 212.464 68.354 211.944 68.6115 211.498C68.8689 211.052 69.2826 210.718 69.8525 210.495C70.4409 210.283 71.1856 210.214 72.0865 210.289C72.5278 210.352 73.0242 210.342 73.5758 210.257C74.1274 210.151 74.7434 209.976 75.4237 209.732C76.104 209.467 76.8762 209.128 77.7404 208.714C78.6045 208.279 79.5882 207.753 80.6914 207.138C82.1255 206.416 83.3666 205.785 84.4147 205.244C85.4627 204.703 86.3085 204.257 86.952 203.907C87.6139 203.546 88.0552 203.27 88.2758 203.079L88.1655 204.194C87.5404 203.833 86.7314 203.238 85.7385 202.41C84.7456 201.581 83.6884 200.673 82.5668 199.685C81.4452 198.697 80.3696 197.779 79.34 196.929C78.3103 196.079 77.437 195.447 76.7199 195.033C75.819 194.512 75.1387 194.289 74.679 194.363C74.2377 194.427 74.0171 194.735 74.0171 195.287C74.0171 195.563 74.0906 195.871 74.2377 196.211C74.4032 196.54 74.679 196.954 75.0651 197.453C75.4145 197.91 75.6535 198.303 75.7822 198.632C75.9293 198.972 76.0028 199.311 76.0028 199.651C76.0028 200.182 75.8465 200.516 75.534 200.654C75.2398 200.803 74.8353 200.728 74.3205 200.431C73.585 200.006 72.9691 199.342 72.4726 198.44C71.9946 197.526 71.7555 196.465 71.7555 195.254C71.7555 193.874 72.0497 192.738 72.6381 191.846C73.2449 190.944 74.0906 190.413 75.1754 190.255C76.2786 190.106 77.5749 190.462 79.0642 191.323C80.1674 191.96 81.1419 192.693 81.9876 193.522C82.8334 194.35 83.5781 195.205 84.2216 196.086C84.8651 196.947 85.4443 197.78 85.9591 198.587C86.4923 199.384 86.9888 200.085 87.4484 200.69C87.9081 201.295 88.3677 201.731 88.8274 201.996C89.1216 202.166 89.379 202.145 89.5997 201.933C89.8387 201.731 90.0685 201.45 90.2891 201.089C90.5282 200.718 90.7764 200.362 91.0338 200.022C91.2912 199.683 91.6038 199.449 91.9715 199.322C92.3392 199.195 92.7897 199.285 93.3229 199.593C93.9664 199.965 94.4445 200.464 94.7571 201.091C95.088 201.728 95.2535 202.407 95.2535 203.129C95.2535 204.191 95.0053 204.929 94.5089 205.343C94.0308 205.767 93.2953 205.905 92.3025 205.756C91.9531 205.703 91.5394 205.719 91.0614 205.804C90.6017 205.899 90.0409 206.074 89.379 206.329C88.7171 206.562 87.9265 206.901 87.0072 207.347C86.1062 207.803 85.0398 208.376 83.8079 209.066C82.3738 209.788 81.1511 210.398 80.1398 210.896C79.1285 211.374 78.2828 211.777 77.6025 212.106C76.9222 212.435 76.3614 212.727 75.9201 212.981Z" fill="white"/>
<path d="M53.5332 198.136C53.0183 199.537 52.8253 200.614 52.954 201.368C53.1011 202.112 53.4229 202.627 53.9193 202.914C54.2319 203.094 54.572 203.174 54.9397 203.153C55.3075 203.132 55.7487 202.962 56.2636 202.644C56.5394 202.506 56.7692 202.447 56.9531 202.469C57.1369 202.49 57.3116 202.591 57.4771 202.771C57.6793 203.016 57.7713 203.281 57.7529 203.568C57.7529 203.865 57.6517 204.178 57.4495 204.507C56.7692 205.516 55.8223 206.094 54.6088 206.242C53.3953 206.369 52.0439 206.003 50.5546 205.142C49.4514 204.505 48.6056 203.729 48.0172 202.816C47.4472 201.892 47.1531 200.873 47.1347 199.758C47.1163 198.643 47.3553 197.422 47.8517 196.095L52.2921 184.709C52.8437 183.308 53.0459 182.236 52.8988 181.493C52.7701 180.739 52.4484 180.213 51.9335 179.916C51.6394 179.746 51.3084 179.671 50.9407 179.692C50.5729 179.713 50.1225 179.888 49.5893 180.217C49.3135 180.334 49.0836 180.382 48.8998 180.36C48.7159 180.339 48.5412 180.238 48.3758 180.058C48.1735 179.813 48.0724 179.553 48.0724 179.277C48.0908 178.991 48.1919 178.677 48.3758 178.338C49.0744 177.319 50.0305 176.735 51.2441 176.587C52.476 176.428 53.809 176.763 55.2431 177.591C56.2728 178.186 57.0726 178.935 57.6426 179.838C58.2309 180.751 58.5527 181.797 58.6078 182.975C58.663 184.154 58.424 185.439 57.8908 186.829L53.5332 198.136Z" fill="white"/>
<path d="M39.3947 173.913C39.3947 176.631 39.0821 179.052 38.457 181.175C37.8319 183.277 36.9493 185.039 35.8093 186.462C34.6878 187.874 33.3731 188.908 31.8654 189.566C30.3761 190.235 28.7581 190.489 27.0114 190.329C25.2647 190.148 23.4628 189.521 21.6058 188.448C19.9142 187.471 18.5812 186.201 17.6067 184.64C16.6506 183.09 16.1909 181.338 16.2277 179.384C16.2645 177.728 16.5771 176.337 17.1654 175.212C17.7538 174.065 18.4893 173.099 19.3718 172.314C20.2544 171.529 21.1645 170.834 22.1022 170.229C23.0583 169.634 23.9225 169.04 24.6947 168.446C25.4853 167.862 26.0553 167.183 26.4046 166.408L26.3771 167.666C25.4761 167.145 24.5844 166.513 23.7018 165.77C22.8377 165.037 21.9919 164.283 21.1645 163.508C20.3371 162.711 19.5373 161.973 18.7651 161.293C18.0112 160.603 17.3033 160.056 16.6414 159.652C15.8876 159.216 15.2992 159.078 14.8763 159.237C14.4534 159.396 14.2328 159.779 14.2144 160.384C14.1776 161 14.527 161.754 15.2624 162.646C15.7221 163.187 16.053 163.665 16.2553 164.079C16.4575 164.472 16.5495 164.886 16.5311 165.322C16.5127 165.948 16.3196 166.336 15.9519 166.484C15.6026 166.622 15.1797 166.547 14.6832 166.261C13.8926 165.804 13.2307 165.039 12.6975 163.967C12.1827 162.884 11.9528 161.657 12.008 160.288C12.0632 158.854 12.3757 157.729 12.9457 156.911C13.5341 156.083 14.3339 155.633 15.3452 155.559C16.3564 155.463 17.524 155.798 18.8478 156.563C19.5649 156.977 20.3187 157.519 21.1093 158.188C21.9183 158.868 22.6906 159.526 23.426 160.164C24.1615 160.801 24.7958 161.274 25.329 161.582C25.8806 161.9 26.2943 162.033 26.5701 161.98C26.8643 161.917 27.1125 161.837 27.3148 161.742C27.517 161.646 27.7836 161.705 28.1146 161.917C28.4272 162.119 28.6386 162.4 28.7489 162.761C28.8776 163.112 28.9052 163.563 28.8317 164.115C28.6478 165.092 28.3352 166.1 27.894 167.141C27.4527 168.16 26.9562 169.232 26.4046 170.357C25.853 171.483 25.3106 172.645 24.7774 173.845C24.2626 175.034 23.8305 176.281 23.4812 177.587C23.1502 178.903 22.9848 180.273 22.9848 181.696C22.9848 183.14 23.2146 184.334 23.6742 185.279C24.1523 186.214 24.7958 186.915 25.6048 187.382C26.6161 187.966 27.6825 188.126 28.8041 187.861C29.9257 187.575 30.9829 186.933 31.9758 185.935C32.987 184.948 33.8052 183.679 34.4304 182.129C35.0555 180.558 35.3681 178.796 35.3681 176.842C35.3865 175.812 35.3129 174.963 35.1474 174.294C34.982 173.604 34.697 172.876 34.2925 172.112C33.8696 171.337 33.557 170.668 33.3547 170.105C33.1525 169.521 33.0514 168.932 33.0514 168.337C33.0698 167.668 33.2077 167.143 33.4651 166.76C33.7409 166.389 34.1086 166.177 34.5683 166.124C35.0279 166.071 35.5427 166.209 36.1127 166.538C37.124 167.123 37.9238 168.031 38.5122 169.262C39.1005 170.494 39.3947 172.044 39.3947 173.913Z" fill="white"/>
</g>
<rect width="138.59" height="137.667" transform="matrix(0.865865 0.500278 0 1 0 70)" fill="#1D2482"/>
<path d="M240 207.718L120 277V140L240 71V207.718Z" fill="#1D2482"/>
<path d="M241 70.5L120.5 0.929291L0 70.5L120.5 140.071L241 70.5Z" fill="#1D2482"/>
<path d="M120.855 188.65C119.813 191.627 119.422 193.711 119.682 194.901C119.98 196.055 120.631 196.632 121.636 196.632C122.269 196.632 122.957 196.427 123.701 196.018C124.446 195.609 125.339 194.864 126.381 193.785C126.939 193.264 127.404 192.929 127.776 192.78C128.148 192.631 128.502 192.631 128.837 192.78C129.246 193.004 129.432 193.376 129.395 193.897C129.395 194.418 129.19 195.069 128.781 195.85C127.404 198.306 125.488 200.279 123.031 201.767C120.575 203.219 117.84 203.944 114.826 203.944C112.593 203.944 110.881 203.442 109.691 202.437C108.537 201.395 107.942 199.907 107.904 197.972C107.867 196.036 108.351 193.655 109.356 190.827L118.343 166.378C119.459 163.364 119.868 161.28 119.571 160.126C119.31 158.935 118.659 158.34 117.617 158.34C117.022 158.34 116.352 158.545 115.607 158.954C114.863 159.363 113.952 160.126 112.872 161.242C112.314 161.726 111.849 162.043 111.477 162.191C111.105 162.34 110.751 162.34 110.416 162.191C110.007 161.968 109.802 161.615 109.802 161.131C109.84 160.61 110.044 159.959 110.416 159.177C111.83 156.684 113.765 154.693 116.222 153.205C118.715 151.679 121.413 150.916 124.315 150.916C126.399 150.916 128.018 151.418 129.172 152.423C130.362 153.428 131.014 154.935 131.125 156.944C131.237 158.954 130.753 161.447 129.674 164.424L120.855 188.65Z" fill="white"/>
<path d="M171.521 128.121C166.192 128.121 161.598 126.979 157.741 124.695C153.883 122.36 150.914 119.137 148.833 115.026C146.752 110.864 145.711 106.093 145.711 100.713C145.711 95.2312 146.752 90.4348 148.833 86.3235C150.914 82.1615 153.883 78.9131 157.741 76.5783C161.598 74.1928 166.192 73 171.521 73C178.119 73 183.499 74.6496 187.661 77.9487C191.874 81.2479 194.488 85.8921 195.503 91.8813H183.017C182.408 89.1913 181.114 87.1102 179.134 85.6383C177.155 84.1156 174.592 83.3543 171.445 83.3543C168.45 83.3543 165.887 84.0649 163.755 85.486C161.674 86.9072 160.075 88.9121 158.959 91.5007C157.893 94.0385 157.36 97.1092 157.36 100.713C157.36 104.215 157.893 107.26 158.959 109.849C160.075 112.387 161.674 114.366 163.755 115.788C165.887 117.158 168.45 117.843 171.445 117.843C174.592 117.843 177.13 117.183 179.058 115.864C181.038 114.493 182.357 112.539 183.017 110.001H195.503C194.488 115.635 191.874 120.076 187.661 123.325C183.499 126.522 178.119 128.121 171.521 128.121Z" fill="white"/>
<path d="M125.853 135.887L106.058 104.672H119.153L139.557 135.887H125.853ZM113.748 128.121C108.52 128.121 103.926 126.954 99.9672 124.619C96.0082 122.284 92.8867 119.061 90.6026 114.95C88.3694 110.788 87.2527 105.992 87.2527 100.561C87.2527 95.1297 88.3694 90.3586 90.6026 86.2474C92.8867 82.0854 96.0082 78.837 99.9672 76.5022C103.926 74.1674 108.52 73 113.748 73C118.975 73 123.594 74.1674 127.604 76.5022C131.614 78.837 134.71 82.0854 136.892 86.2474C139.126 90.3586 140.242 95.1297 140.242 100.561C140.242 105.992 139.126 110.788 136.892 114.95C134.71 119.061 131.614 122.284 127.604 124.619C123.594 126.954 118.975 128.121 113.748 128.121ZM113.748 117.843C116.844 117.843 119.483 117.133 121.665 115.711C123.899 114.29 125.624 112.311 126.843 109.773C128.061 107.184 128.67 104.114 128.67 100.561C128.67 97.0077 128.061 93.9623 126.843 91.4245C125.624 88.836 123.899 86.8565 121.665 85.486C119.483 84.0649 116.844 83.3543 113.748 83.3543C110.753 83.3543 108.139 84.0649 105.906 85.486C103.672 86.8565 101.947 88.836 100.729 91.4245C99.5104 93.9623 98.9013 97.0077 98.9013 100.561C98.9013 104.114 99.5104 107.184 100.729 109.773C101.947 112.311 103.672 114.29 105.906 115.711C108.139 117.133 110.753 117.843 113.748 117.843Z" fill="white"/>
<path d="M48.2602 127.208V73.9136H83.6627V83.1259H59.6803V96.0688H78.5617V104.976H59.6803V127.208H48.2602Z" fill="white"/>
<path d="M152.911 191.999L153.804 190.101C155.665 190.101 157.712 190.38 159.945 190.938C162.177 191.459 164.429 191.999 166.699 192.557C168.969 193.078 171.071 193.339 173.006 193.339C175.574 193.339 177.621 192.929 179.146 192.111C180.672 191.255 181.807 189.692 182.551 187.422C182.849 186.789 183.128 186.361 183.389 186.138C183.649 185.877 183.947 185.747 184.282 185.747C184.691 185.747 184.989 185.933 185.175 186.305C185.398 186.677 185.51 187.291 185.51 188.147C185.361 191.31 184.561 194.083 183.11 196.464C181.695 198.846 179.835 200.688 177.528 201.991C175.22 203.293 172.653 203.944 169.825 203.944C167.741 203.944 165.88 203.609 164.243 202.939C162.643 202.307 161.191 201.507 159.889 200.539C158.624 199.572 157.507 198.604 156.54 197.637C155.572 196.669 154.66 195.85 153.804 195.181C152.986 194.511 152.204 194.176 151.46 194.176C150.827 194.139 150.251 194.455 149.73 195.125C149.246 195.757 148.744 196.576 148.223 197.581C147.702 198.548 147.125 199.534 146.492 200.539C145.897 201.507 145.171 202.307 144.315 202.939C143.497 203.609 142.51 203.944 141.357 203.944C140.129 203.944 139.143 203.591 138.398 202.884C137.691 202.214 137.338 201.228 137.338 199.925C137.338 198.883 137.598 197.841 138.119 196.799C138.64 195.757 139.478 194.753 140.631 193.785C141.822 192.818 143.329 191.943 145.153 191.162C146.046 190.827 147.05 190.306 148.167 189.599C149.283 188.854 150.53 187.924 151.907 186.808C153.284 185.654 154.846 184.277 156.595 182.677C158.344 181.04 160.335 179.123 162.568 176.928C165.471 174.211 167.983 171.848 170.104 169.839C172.225 167.829 173.937 166.192 175.239 164.927C176.579 163.624 177.472 162.694 177.918 162.136L177.695 164.201C176.43 164.201 174.793 163.978 172.783 163.531C170.774 163.085 168.634 162.564 166.364 161.968C164.094 161.373 161.917 160.852 159.833 160.405C157.749 159.959 155.981 159.735 154.53 159.735C152.707 159.735 151.33 160.033 150.4 160.628C149.506 161.187 149.06 161.95 149.06 162.917C149.06 163.401 149.209 163.866 149.506 164.313C149.841 164.722 150.4 165.168 151.181 165.652C151.888 166.099 152.372 166.545 152.632 166.992C152.93 167.438 153.079 167.959 153.079 168.555C153.079 169.485 152.763 170.229 152.13 170.788C151.535 171.346 150.716 171.625 149.674 171.625C148.185 171.625 146.939 171.085 145.934 170.006C144.966 168.89 144.483 167.271 144.483 165.15C144.483 162.731 145.078 160.442 146.269 158.284C147.497 156.088 149.209 154.302 151.404 152.925C153.637 151.549 156.261 150.86 159.275 150.86C161.508 150.86 163.48 151.158 165.192 151.753C166.903 152.349 168.411 153.093 169.713 153.986C171.015 154.842 172.188 155.716 173.23 156.609C174.309 157.465 175.313 158.191 176.244 158.786C177.174 159.382 178.104 159.68 179.035 159.68C179.63 159.68 180.151 159.382 180.598 158.786C181.081 158.191 181.547 157.465 181.993 156.609C182.477 155.716 182.979 154.842 183.5 153.986C184.021 153.13 184.654 152.404 185.398 151.809C186.142 151.214 187.054 150.916 188.133 150.916C189.436 150.916 190.403 151.307 191.036 152.088C191.706 152.87 192.041 153.893 192.041 155.158C192.041 157.019 191.538 158.563 190.534 159.791C189.566 161.019 188.077 162.005 186.068 162.75C185.361 163.01 184.524 163.457 183.556 164.089C182.626 164.722 181.491 165.596 180.151 166.713C178.811 167.792 177.211 169.187 175.351 170.899C173.527 172.611 171.369 174.695 168.876 177.151C165.973 179.867 163.498 182.175 161.452 184.073C159.405 185.933 157.693 187.496 156.316 188.761C154.939 190.027 153.804 191.106 152.911 191.999Z" fill="white"/>
<path d="M99.4447 160.517C99.4447 165.28 98.8121 169.839 97.5468 174.193C96.2816 178.509 94.4954 182.491 92.1882 186.138C89.9182 189.747 87.2575 192.892 84.2061 195.571C81.1918 198.251 77.9171 200.335 74.3819 201.823C70.8466 203.274 67.1998 204 63.4413 204C60.0177 204 57.3198 203.125 55.3475 201.376C53.4124 199.627 52.4821 197.023 52.5565 193.562C52.631 190.622 53.2636 187.868 54.4544 185.301C55.6452 182.696 57.1337 180.258 58.9199 177.988C60.7062 175.718 62.5482 173.579 64.446 171.569C66.3811 169.56 68.1301 167.643 69.6931 165.82C71.2932 163.996 72.4468 162.229 73.1538 160.517L73.098 162.75C71.2746 162.75 69.4698 162.545 67.6836 162.136C65.9346 161.726 64.2228 161.261 62.5482 160.74C60.8736 160.182 59.2549 159.698 57.6919 159.289C56.1662 158.842 54.7335 158.6 53.3938 158.563C51.8681 158.563 50.6773 158.917 49.8214 159.624C48.9655 160.331 48.519 161.224 48.4817 162.303C48.4073 163.419 49.1144 164.387 50.6029 165.206C51.5332 165.689 52.203 166.192 52.6124 166.713C53.0217 167.197 53.2078 167.829 53.1706 168.611C53.1333 169.727 52.7426 170.601 51.9984 171.234C51.2913 171.83 50.4354 172.127 49.4307 172.127C47.8305 172.127 46.4909 171.457 45.4117 170.118C44.3697 168.741 43.9046 166.824 44.0162 164.368C44.1278 161.801 44.7605 159.512 45.9141 157.503C47.1049 155.456 48.7236 153.856 50.7703 152.702C52.817 151.511 55.1801 150.916 57.8594 150.916C59.3107 150.916 60.8364 151.102 62.4366 151.474C64.0739 151.846 65.6369 152.218 67.1254 152.59C68.6139 152.963 69.8977 153.149 70.9769 153.149C72.0933 153.149 72.9306 152.963 73.4888 152.59C74.0842 152.181 74.5865 151.79 74.9959 151.418C75.4052 151.046 75.9448 150.879 76.6146 150.916C77.2473 150.953 77.6752 151.232 77.8985 151.753C78.159 152.237 78.2148 153 78.0659 154.042C77.6938 155.94 77.0612 158.024 76.1681 160.294C75.275 162.526 74.2702 164.908 73.1538 167.438C72.0375 169.969 70.9397 172.555 69.8605 175.197C68.8186 177.802 67.944 180.426 67.237 183.068C66.5672 185.71 66.2323 188.278 66.2323 190.771C66.2323 193.301 66.6974 195.162 67.6277 196.353C68.5953 197.506 69.8977 198.083 71.5351 198.083C73.5818 198.083 75.7401 197.283 78.0101 195.683C80.2801 194.046 82.4198 191.85 84.4293 189.096C86.476 186.343 88.132 183.291 89.3972 179.942C90.6625 176.556 91.2951 173.151 91.2951 169.727C91.3323 167.904 91.1835 166.489 90.8485 165.485C90.5136 164.443 89.9368 163.457 89.1181 162.526C88.2622 161.596 87.6296 160.74 87.2203 159.959C86.8109 159.14 86.6063 158.21 86.6063 157.168C86.6435 155.977 86.9226 154.916 87.4436 153.986C88.0018 153.056 88.746 152.311 89.6763 151.753C90.6067 151.195 91.6486 150.916 92.8022 150.916C94.8489 150.916 96.4677 151.697 97.6585 153.26C98.8493 154.823 99.4447 157.242 99.4447 160.517Z" fill="white"/>
</g>
<defs>
<clipPath id="clip0_7_21">
<rect width="240" height="277" fill="white"/>
</clipPath>
<clipPath id="clip1_7_21">
<rect width="138.59" height="137.667" fill="white" transform="matrix(0.865865 0.500278 0 1 0 70)"/>
</clipPath>
</defs>
</svg>
